<?xml version="1.0" encoding="UTF-8"?>
<!DOCTYPE svg PUBLIC "-//W3C//DTD SVG 1.1//EN" "http://www.w3.org/Graphics/SVG/1.1/DTD/svg11.dtd">
<svg xmlns="http://www.w3.org/2000/svg" version="1.1" width="512px" height="512px" style="shape-rendering:geometricPrecision; text-rendering:geometricPrecision; image-rendering:optimizeQuality; fill-rule:evenodd; clip-rule:evenodd" xmlns:xlink="http://www.w3.org/1999/xlink">
<g><path style="opacity:0.979" fill="#008100" d="M 237.5,-0.5 C 246.167,-0.5 254.833,-0.5 263.5,-0.5C 302.184,6.34986 325.684,29.0165 334,67.5C 336.153,87.4552 337.819,107.455 339,127.5C 341.138,143.914 346.472,159.247 355,173.5C 359.178,180.528 363.345,187.528 367.5,194.5C 358.603,189.268 350.27,183.268 342.5,176.5C 342.965,170.598 340.632,166.098 335.5,163C 330.064,159.887 324.398,157.221 318.5,155C 309.975,152.145 306.475,154.978 308,163.5C 313.879,168.952 319.046,174.952 323.5,181.5C 319.761,185.568 315.428,188.901 310.5,191.5C 307.439,184.379 304.106,177.379 300.5,170.5C 299.833,169.167 299.167,167.833 298.5,166.5C 298.167,165.833 297.833,165.167 297.5,164.5C 296.583,161.583 295.916,158.583 295.5,155.5C 298.163,148.872 298.83,142.206 297.5,135.5C 295.489,131.828 292.822,128.828 289.5,126.5C 299.546,117.977 301.88,107.644 296.5,95.5C 294.391,88.1172 290.391,81.9505 284.5,77C 268.464,71.3506 257.464,76.5173 251.5,92.5C 250.607,94.9026 249.94,97.4026 249.5,100C 250.439,105.328 252.439,110.161 255.5,114.5C 245.114,111.928 234.781,111.928 224.5,114.5C 230.658,99.1377 226.991,86.6377 213.5,77C 212.552,76.5172 211.552,76.3505 210.5,76.5C 205.818,74.7327 201.984,76.0661 199,80.5C 196.383,85.1826 194.883,90.1826 194.5,95.5C 192.296,106.916 194.129,117.583 200,127.5C 201.113,128.305 202.279,128.972 203.5,129.5C 200.101,133.288 196.934,137.288 194,141.5C 193.517,142.448 193.351,143.448 193.5,144.5C 192.861,145.097 192.528,145.93 192.5,147C 192.387,148.699 193.053,149.866 194.5,150.5C 197.167,154.167 199.833,157.833 202.5,161.5C 200.992,163.181 199.992,165.181 199.5,167.5C 199.007,169.806 198.674,172.139 198.5,174.5C 196.731,186.036 192.231,196.37 185,205.5C 182.597,209.635 180.763,213.968 179.5,218.5C 175.794,225.65 173.461,233.317 172.5,241.5C 163.404,261.361 154.571,281.361 146,301.5C 142.459,313.575 140.626,325.909 140.5,338.5C 140.5,339.167 140.5,339.833 140.5,340.5C 140.5,344.5 140.5,348.5 140.5,352.5C 136.517,348.98 133.35,344.647 131,339.5C 130.333,335.167 130.333,330.833 131,326.5C 135.068,309.564 140.068,292.897 146,276.5C 150.62,266.859 155.287,257.193 160,247.5C 160.499,243.179 160.666,238.846 160.5,234.5C 157.901,234.549 155.734,235.549 154,237.5C 150.868,243.095 148.034,248.762 145.5,254.5C 145.5,255.167 145.5,255.833 145.5,256.5C 144.542,256.953 143.708,257.619 143,258.5C 138.158,270.235 134.158,282.235 131,294.5C 130.501,298.152 130.335,301.818 130.5,305.5C 128.254,307.649 126.754,310.316 126,313.5C 125.841,318.916 125.174,324.25 124,329.5C 117.012,333.287 115.845,338.287 120.5,344.5C 121.114,346.283 122.28,347.616 124,348.5C 124.309,349.766 124.809,350.933 125.5,352C 125.272,352.399 124.938,352.565 124.5,352.5C 119.938,350.4 115.272,350.066 110.5,351.5C 107.352,352.576 104.352,353.909 101.5,355.5C 100.164,353.99 98.9973,352.323 98,350.5C 97.2119,343.444 97.5452,336.444 99,329.5C 105.728,315.044 112.728,300.711 120,286.5C 124.732,273.637 129.066,260.637 133,247.5C 136.241,240.011 140.241,233.011 145,226.5C 154.381,215.455 163.381,204.121 172,192.5C 176.773,185.956 180.773,178.956 184,171.5C 183.741,141.661 182.908,111.827 181.5,82C 179.25,56.0786 186.917,33.7453 204.5,15C 214.297,7.09939 225.297,1.93272 237.5,-0.5 Z"/></g>
<g><path style="opacity:1" fill="#00a100" d="M 271.5,15.5 C 262.665,13.99 259.665,17.3233 262.5,25.5C 262.498,31.6977 263.832,37.531 266.5,43C 267.833,43.6667 269.167,43.6667 270.5,43C 276.815,39.1394 283.315,35.6394 290,32.5C 290.667,30.8333 290.667,29.1667 290,27.5C 286.288,24.2571 282.788,20.9238 279.5,17.5C 281.78,18.6401 284.114,19.8068 286.5,21C 287.667,23.5 289.5,25.3333 292,26.5C 292.841,30.1202 292.174,33.4536 290,36.5C 286.151,37.7277 282.318,39.061 278.5,40.5C 275.36,42.473 272.36,44.6397 269.5,47C 266.32,48.0361 263.82,47.2028 262,44.5C 261.419,35.1194 260.753,25.7861 260,16.5C 263.784,14.3547 267.618,14.0213 271.5,15.5 Z"/></g>
<g><path style="opacity:1" fill="#00bd00" d="M 271.5,15.5 C 274.327,15.5838 276.994,16.2504 279.5,17.5C 282.788,20.9238 286.288,24.2571 290,27.5C 290.667,29.1667 290.667,30.8333 290,32.5C 283.315,35.6394 276.815,39.1394 270.5,43C 269.167,43.6667 267.833,43.6667 266.5,43C 263.832,37.531 262.498,31.6977 262.5,25.5C 259.665,17.3233 262.665,13.99 271.5,15.5 Z"/></g>
<g><path style="opacity:1" fill="#00ee00" d="M 262.5,25.5 C 261.342,17.4948 264.675,14.6615 272.5,17C 275.485,18.6644 278.485,20.331 281.5,22C 283.357,23.1824 284.357,24.849 284.5,27C 281.314,35.0103 275.48,38.1769 267,36.5C 265.908,33.9556 265.241,31.2889 265,28.5C 264.148,27.4293 263.315,26.4293 262.5,25.5 Z"/></g>
<g><path style="opacity:1" fill="#80817f" d="M 280.5,67.5 C 287.994,68.3206 293.494,71.9873 297,78.5C 297.667,80.1667 297.667,81.8333 297,83.5C 293.59,76.5325 288.09,72.0325 280.5,70C 279.402,69.2303 279.402,68.397 280.5,67.5 Z"/></g>
<g><path style="opacity:1" fill="#6f716f" d="M 204.5,68.5 C 215.267,67.297 222.767,71.6303 227,81.5C 227.749,82.635 227.583,83.635 226.5,84.5C 221.819,74.9951 214.153,70.1617 203.5,70C 204.056,69.6174 204.389,69.1174 204.5,68.5 Z"/></g>
<g><path style="opacity:1" fill="#b3b3b3" d="M 210.5,76.5 C 208.833,76.5 207.167,76.5 205.5,76.5C 205.216,79.7766 205.549,82.9433 206.5,86C 203.417,87.1392 200.417,88.4725 197.5,90C 196.131,91.7189 195.131,93.5522 194.5,95.5C 194.883,90.1826 196.383,85.1826 199,80.5C 201.984,76.0661 205.818,74.7327 210.5,76.5 Z"/></g>
<g><path style="opacity:1" fill="#c7c7c7" d="M 296.5,95.5 C 290.49,92.3271 284.157,89.8271 277.5,88C 271.5,87.3333 265.5,87.3333 259.5,88C 256.676,89.2446 254.009,90.7446 251.5,92.5C 257.464,76.5173 268.464,71.3506 284.5,77C 290.391,81.9505 294.391,88.1172 296.5,95.5 Z"/></g>
<g><path style="opacity:1" fill="#eeeeee" d="M 210.5,76.5 C 211.552,76.3505 212.552,76.5172 213.5,77C 226.991,86.6377 230.658,99.1377 224.5,114.5C 223.609,115.11 222.609,115.443 221.5,115.5C 221.38,108.643 219.547,102.31 216,96.5C 210.078,91.8701 205.078,92.5368 201,98.5C 199.768,105.839 200.768,112.839 204,119.5C 205.73,121.402 207.563,123.069 209.5,124.5C 207.909,126.633 205.909,128.299 203.5,129.5C 202.279,128.972 201.113,128.305 200,127.5C 194.129,117.583 192.296,106.916 194.5,95.5C 195.131,93.5522 196.131,91.7189 197.5,90C 200.417,88.4725 203.417,87.1392 206.5,86C 205.549,82.9433 205.216,79.7766 205.5,76.5C 207.167,76.5 208.833,76.5 210.5,76.5 Z"/></g>
<g><path style="opacity:1" fill="#f7f7f6" d="M 296.5,95.5 C 301.88,107.644 299.546,117.977 289.5,126.5C 288.584,126.982 287.584,127.315 286.5,127.5C 283.87,126.622 281.203,125.955 278.5,125.5C 278.5,125.167 278.5,124.833 278.5,124.5C 284.955,119.92 287.955,113.586 287.5,105.5C 285.947,95.237 280.281,90.9037 270.5,92.5C 265.776,94.5756 262.942,98.2423 262,103.5C 261.092,108.689 261.592,113.689 263.5,118.5C 260.55,117.692 257.883,116.358 255.5,114.5C 252.439,110.161 250.439,105.328 249.5,100C 249.94,97.4026 250.607,94.9026 251.5,92.5C 254.009,90.7446 256.676,89.2446 259.5,88C 265.5,87.3333 271.5,87.3333 277.5,88C 284.157,89.8271 290.49,92.3271 296.5,95.5 Z"/></g>
<g><path style="opacity:1" fill="#060605" d="M 270.5,92.5 C 273.001,92.5109 273.168,93.1776 271,94.5C 270.236,98.2435 271.736,100.577 275.5,101.5C 277.16,103.99 278.827,106.49 280.5,109C 284.262,110.311 286.595,109.144 287.5,105.5C 287.955,113.586 284.955,119.92 278.5,124.5C 273.438,123.035 268.438,121.368 263.5,119.5C 263.5,119.167 263.5,118.833 263.5,118.5C 261.592,113.689 261.092,108.689 262,103.5C 262.942,98.2423 265.776,94.5756 270.5,92.5 Z"/></g>
<g><path style="opacity:1" fill="#10100f" d="M 221.5,115.5 C 217.524,118.469 213.524,121.469 209.5,124.5C 207.563,123.069 205.73,121.402 204,119.5C 200.768,112.839 199.768,105.839 201,98.5C 205.078,92.5368 210.078,91.8701 216,96.5C 219.547,102.31 221.38,108.643 221.5,115.5 Z"/></g>
<g><path style="opacity:1" fill="#2b2b2b" d="M 270.5,92.5 C 280.281,90.9037 285.947,95.237 287.5,105.5C 286.595,109.144 284.262,110.311 280.5,109C 278.827,106.49 277.16,103.99 275.5,101.5C 271.736,100.577 270.236,98.2435 271,94.5C 273.168,93.1776 273.001,92.5109 270.5,92.5 Z"/></g>
<g><path style="opacity:1" fill="#818181" d="M 275.5,101.5 C 273.919,99.8583 273.253,97.8583 273.5,95.5C 280.102,96.7695 283.436,100.769 283.5,107.5C 280.612,107.78 279.112,106.447 279,103.5C 278.184,102.177 277.017,101.511 275.5,101.5 Z"/></g>
<g><path style="opacity:1" fill="#898989" d="M 206.5,96.5 C 213.968,96.3042 217.301,99.9709 216.5,107.5C 215.022,107.762 213.689,107.429 212.5,106.5C 210.039,103.388 208.039,100.055 206.5,96.5 Z"/></g>
<g><path style="opacity:1" fill="#797979" d="M 236.5,102.5 C 239.187,102.336 241.854,102.503 244.5,103C 247.188,103.782 248.188,105.282 247.5,107.5C 244.662,106.04 241.662,105.04 238.5,104.5C 237.287,104.253 236.62,103.586 236.5,102.5 Z"/></g>
<g><path style="opacity:1" fill="#efb912" d="M 255.5,114.5 C 257.883,116.358 260.55,117.692 263.5,118.5C 263.5,118.833 263.5,119.167 263.5,119.5C 258.058,121.838 252.725,124.671 247.5,128C 245.333,131.197 242.833,134.03 240,136.5C 229.647,158.48 235.147,163.646 256.5,152C 264.83,144.833 271.496,136.333 276.5,126.5C 276.957,125.702 277.624,125.369 278.5,125.5C 281.203,125.955 283.87,126.622 286.5,127.5C 287.584,127.315 288.584,126.982 289.5,126.5C 292.822,128.828 295.489,131.828 297.5,135.5C 297.665,138.518 297.498,141.518 297,144.5C 295.128,142.153 292.961,140.153 290.5,138.5C 286.895,138.799 283.561,139.965 280.5,142C 271.997,147.084 263.664,152.417 255.5,158C 234.938,170.089 216.605,167.423 200.5,150C 198.35,148.589 196.016,147.755 193.5,147.5C 193.5,146.5 193.5,145.5 193.5,144.5C 193.351,143.448 193.517,142.448 194,141.5C 196.934,137.288 200.101,133.288 203.5,129.5C 205.909,128.299 207.909,126.633 209.5,124.5C 213.524,121.469 217.524,118.469 221.5,115.5C 222.609,115.443 223.609,115.11 224.5,114.5C 234.781,111.928 245.114,111.928 255.5,114.5 Z"/></g>
<g><path style="opacity:1" fill="#1e1603" d="M 225.5,116.5 C 227.103,116.312 228.437,116.812 229.5,118C 227.324,118.163 225.491,118.996 224,120.5C 223.7,118.934 224.2,117.601 225.5,116.5 Z"/></g>
<g><path style="opacity:1" fill="#231b04" d="M 246.5,117.5 C 248.681,117.284 250.347,118.117 251.5,120C 249.529,120.014 247.529,119.681 245.5,119C 246.056,118.617 246.389,118.117 246.5,117.5 Z"/></g>
<g><path style="opacity:1" fill="#f5ca40" d="M 263.5,119.5 C 268.438,121.368 273.438,123.035 278.5,124.5C 278.5,124.833 278.5,125.167 278.5,125.5C 277.624,125.369 276.957,125.702 276.5,126.5C 271.496,136.333 264.83,144.833 256.5,152C 235.147,163.646 229.647,158.48 240,136.5C 242.833,134.03 245.333,131.197 247.5,128C 252.725,124.671 258.058,121.838 263.5,119.5 Z"/></g>
<g><path style="opacity:1" fill="#f9d870" d="M 258.5,126.5 C 261.119,126.232 263.619,126.565 266,127.5C 266.701,130.928 266.368,134.262 265,137.5C 260.979,143.859 255.479,148.359 248.5,151C 245.854,151.497 243.187,151.664 240.5,151.5C 240.211,148.351 240.711,145.351 242,142.5C 247.422,136.909 252.922,131.575 258.5,126.5 Z"/></g>
<g><path style="opacity:1" fill="#fbe6a4" d="M 253.5,134.5 C 255.167,134.5 256.833,134.5 258.5,134.5C 258.167,140.833 254.833,144.167 248.5,144.5C 249.085,140.663 250.752,137.33 253.5,134.5 Z"/></g>
<g><path style="opacity:1" fill="#d1a10b" d="M 297.5,135.5 C 298.83,142.206 298.163,148.872 295.5,155.5C 280.933,165.129 265.933,174.296 250.5,183C 240.392,185.762 230.725,184.762 221.5,180C 214.636,174.302 208.303,168.135 202.5,161.5C 199.833,157.833 197.167,154.167 194.5,150.5C 194.56,149.957 194.893,149.624 195.5,149.5C 200.219,151.715 204.219,154.881 207.5,159C 223.233,169.912 239.233,170.246 255.5,160C 266.929,152.293 278.596,145.127 290.5,138.5C 292.961,140.153 295.128,142.153 297,144.5C 297.498,141.518 297.665,138.518 297.5,135.5 Z"/></g>
<g><path style="opacity:1" fill="#513f06" d="M 290.5,138.5 C 278.596,145.127 266.929,152.293 255.5,160C 239.233,170.246 223.233,169.912 207.5,159C 204.219,154.881 200.219,151.715 195.5,149.5C 194.893,149.624 194.56,149.957 194.5,150.5C 193.053,149.866 192.387,148.699 192.5,147C 192.528,145.93 192.861,145.097 193.5,144.5C 193.5,145.5 193.5,146.5 193.5,147.5C 196.016,147.755 198.35,148.589 200.5,150C 216.605,167.423 234.938,170.089 255.5,158C 263.664,152.417 271.997,147.084 280.5,142C 283.561,139.965 286.895,138.799 290.5,138.5 Z"/></g>
<g><path style="opacity:1" fill="#009b00" d="M 342.5,176.5 C 341.5,176.5 340.5,176.5 339.5,176.5C 339.662,174.473 339.495,172.473 339,170.5C 331.699,162.097 322.532,157.931 311.5,158C 310.109,162.391 311.609,165.558 316,167.5C 318.36,172.24 321.193,176.574 324.5,180.5C 324.5,181.167 324.167,181.5 323.5,181.5C 319.046,174.952 313.879,168.952 308,163.5C 306.475,154.978 309.975,152.145 318.5,155C 324.398,157.221 330.064,159.887 335.5,163C 340.632,166.098 342.965,170.598 342.5,176.5 Z"/></g>
<g><path style="opacity:1" fill="#a4a4a3" d="M 295.5,155.5 C 295.916,158.583 296.583,161.583 297.5,164.5C 293.818,164.335 290.152,164.501 286.5,165C 279.1,173.07 271.1,180.404 262.5,187C 250.775,196.131 238.109,197.798 224.5,192C 221.299,188.464 217.799,185.297 214,182.5C 211.853,177.207 209.02,172.373 205.5,168C 203.527,167.505 201.527,167.338 199.5,167.5C 199.992,165.181 200.992,163.181 202.5,161.5C 208.303,168.135 214.636,174.302 221.5,180C 230.725,184.762 240.392,185.762 250.5,183C 265.933,174.296 280.933,165.129 295.5,155.5 Z"/></g>
<g><path style="opacity:1" fill="#b7b7b7" d="M 297.5,164.5 C 297.833,165.167 298.167,165.833 298.5,166.5C 295.813,166.336 293.146,166.503 290.5,167C 285.747,173.209 280.747,179.209 275.5,185C 266.5,190 257.5,195 248.5,200C 229.412,203.302 215.745,196.469 207.5,179.5C 204.998,177.83 202.998,175.664 201.5,173C 200.212,172.761 199.212,173.261 198.5,174.5C 198.674,172.139 199.007,169.806 199.5,167.5C 201.527,167.338 203.527,167.505 205.5,168C 209.02,172.373 211.853,177.207 214,182.5C 217.799,185.297 221.299,188.464 224.5,192C 238.109,197.798 250.775,196.131 262.5,187C 271.1,180.404 279.1,173.07 286.5,165C 290.152,164.501 293.818,164.335 297.5,164.5 Z"/></g>
<g><path style="opacity:1" fill="#fbfbfb" d="M 300.5,170.5 C 304.106,177.379 307.439,184.379 310.5,191.5C 288.386,207.157 263.719,216.657 236.5,220C 225.521,220.999 214.521,221.666 203.5,222C 200.798,223.012 198.465,224.512 196.5,226.5C 192.308,225.015 187.974,223.681 183.5,222.5C 181.625,221.591 180.292,220.257 179.5,218.5C 180.763,213.968 182.597,209.635 185,205.5C 192.231,196.37 196.731,186.036 198.5,174.5C 199.212,173.261 200.212,172.761 201.5,173C 202.998,175.664 204.998,177.83 207.5,179.5C 209.779,192.942 217.779,200.442 231.5,202C 241.254,203.475 250.588,202.142 259.5,198C 265.241,192.95 271.575,188.617 278.5,185C 282.5,180.333 286.5,175.667 290.5,171C 293.817,170.502 297.15,170.335 300.5,170.5 Z"/></g>
<g><path style="opacity:1" fill="#2df72b" d="M 339.5,176.5 C 333.847,175.673 328.847,177.007 324.5,180.5C 321.193,176.574 318.36,172.24 316,167.5C 311.609,165.558 310.109,162.391 311.5,158C 322.532,157.931 331.699,162.097 339,170.5C 339.495,172.473 339.662,174.473 339.5,176.5 Z"/></g>
<g><path style="opacity:1" fill="#000000" d="M 339.5,176.5 C 340.5,176.5 341.5,176.5 342.5,176.5C 350.27,183.268 358.603,189.268 367.5,194.5C 388.277,208.536 411.277,217.036 436.5,220C 447.482,220.952 458.482,221.618 469.5,222C 473.275,223.442 476.108,225.942 478,229.5C 496.299,295.162 485.132,355.162 444.5,409.5C 442.457,410.579 441.124,412.246 440.5,414.5C 414.537,443.652 382.87,463.986 345.5,475.5C 343.716,475.893 342.05,476.559 340.5,477.5C 339.833,477.833 339.167,478.167 338.5,478.5C 337.391,478.557 336.391,478.89 335.5,479.5C 331.299,476.689 326.633,474.689 321.5,473.5C 317.849,472.004 314.182,470.837 310.5,470C 307.739,476.018 305.406,482.185 303.5,488.5C 302.828,491.343 301.495,493.843 299.5,496C 284.042,498.886 270.375,495.386 258.5,485.5C 255.563,482.749 254.396,479.415 255,475.5C 258.323,469.356 261.823,463.356 265.5,457.5C 268.564,454.726 269.898,451.392 269.5,447.5C 251.355,435.188 236.021,420.021 223.5,402C 213.094,400.952 202.76,399.452 192.5,397.5C 188.537,394.871 184.871,391.871 181.5,388.5C 190.434,390.545 199.434,392.379 208.5,394C 211.554,394.821 214.554,394.655 217.5,393.5C 213.903,387.97 210.57,382.304 207.5,376.5C 204.976,370.618 202.31,364.785 199.5,359C 181.94,356.69 164.94,352.357 148.5,346C 145.244,344.884 142.578,343.051 140.5,340.5C 140.5,339.833 140.5,339.167 140.5,338.5C 148.666,340.833 156.666,343.667 164.5,347C 175.138,348.999 185.805,349.833 196.5,349.5C 184.758,312.543 183.425,275.209 192.5,237.5C 193.436,233.691 194.77,230.025 196.5,226.5C 198.465,224.512 200.798,223.012 203.5,222C 214.521,221.666 225.521,220.999 236.5,220C 263.719,216.657 288.386,207.157 310.5,191.5C 315.428,188.901 319.761,185.568 323.5,181.5C 324.167,181.5 324.5,181.167 324.5,180.5C 328.847,177.007 333.847,175.673 339.5,176.5 Z"/></g>
<g><path style="opacity:1" fill="#dbdbdb" d="M 298.5,166.5 C 299.167,167.833 299.833,169.167 300.5,170.5C 297.15,170.335 293.817,170.502 290.5,171C 286.5,175.667 282.5,180.333 278.5,185C 271.575,188.617 265.241,192.95 259.5,198C 250.588,202.142 241.254,203.475 231.5,202C 217.779,200.442 209.779,192.942 207.5,179.5C 215.745,196.469 229.412,203.302 248.5,200C 257.5,195 266.5,190 275.5,185C 280.747,179.209 285.747,173.209 290.5,167C 293.146,166.503 295.813,166.336 298.5,166.5 Z"/></g>
<g><path style="opacity:1" fill="#d8d8d8" d="M 179.5,218.5 C 180.292,220.257 181.625,221.591 183.5,222.5C 187.974,223.681 192.308,225.015 196.5,226.5C 194.77,230.025 193.436,233.691 192.5,237.5C 188.675,238.074 185.009,239.241 181.5,241C 178.303,241.242 175.303,241.408 172.5,241.5C 173.461,233.317 175.794,225.65 179.5,218.5 Z"/></g>
<g><path style="opacity:1" fill="#fcfcfc" d="M 192.5,237.5 C 183.425,275.209 184.758,312.543 196.5,349.5C 185.805,349.833 175.138,348.999 164.5,347C 156.666,343.667 148.666,340.833 140.5,338.5C 140.626,325.909 142.459,313.575 146,301.5C 154.571,281.361 163.404,261.361 172.5,241.5C 175.303,241.408 178.303,241.242 181.5,241C 185.009,239.241 188.675,238.074 192.5,237.5 Z"/></g>
<g><path style="opacity:1" fill="#05bc05" d="M 146.5,269.5 C 145.503,269.47 144.836,269.97 144.5,271C 142.303,275.85 140.136,280.683 138,285.5C 137.833,284.167 137.667,282.833 137.5,281.5C 139.099,272.753 141.766,264.419 145.5,256.5C 145.5,255.833 145.5,255.167 145.5,254.5C 150.448,250.279 153.614,244.946 155,238.5C 156.011,237.663 157.178,237.33 158.5,237.5C 158.265,242.709 157.098,247.709 155,252.5C 152.176,258.147 149.343,263.814 146.5,269.5 Z"/></g>
<g><path style="opacity:1" fill="#00a400" d="M 145.5,256.5 C 141.766,264.419 139.099,272.753 137.5,281.5C 137.667,282.833 137.833,284.167 138,285.5C 140.136,280.683 142.303,275.85 144.5,271C 144.836,269.97 145.503,269.47 146.5,269.5C 145.11,276.838 142.443,283.671 138.5,290C 136.712,297.332 134.712,304.499 132.5,311.5C 132.975,308.918 132.308,306.918 130.5,305.5C 130.335,301.818 130.501,298.152 131,294.5C 134.158,282.235 138.158,270.235 143,258.5C 143.708,257.619 144.542,256.953 145.5,256.5 Z"/></g>
<g><path style="opacity:1" fill="#009200" d="M 140.5,352.5 C 141.351,354.882 142.684,356.882 144.5,358.5C 142.817,359.661 140.984,360.661 139,361.5C 137.323,360.392 135.823,360.392 134.5,361.5C 131.141,358.471 127.808,355.471 124.5,352.5C 124.938,352.565 125.272,352.399 125.5,352C 124.809,350.933 124.309,349.766 124,348.5C 122.28,347.616 121.114,346.283 120.5,344.5C 125.74,346.213 130.073,349.38 133.5,354C 134.635,354.749 135.635,354.583 136.5,353.5C 134.287,348.71 131.787,344.043 129,339.5C 128.333,334.5 128.333,329.5 129,324.5C 130.863,320.351 132.03,316.018 132.5,311.5C 134.712,304.499 136.712,297.332 138.5,290C 142.443,283.671 145.11,276.838 146.5,269.5C 149.343,263.814 152.176,258.147 155,252.5C 157.098,247.709 158.265,242.709 158.5,237.5C 157.178,237.33 156.011,237.663 155,238.5C 153.614,244.946 150.448,250.279 145.5,254.5C 148.034,248.762 150.868,243.095 154,237.5C 155.734,235.549 157.901,234.549 160.5,234.5C 160.666,238.846 160.499,243.179 160,247.5C 155.287,257.193 150.62,266.859 146,276.5C 140.068,292.897 135.068,309.564 131,326.5C 130.333,330.833 130.333,335.167 131,339.5C 133.35,344.647 136.517,348.98 140.5,352.5 Z"/></g>
<g><path style="opacity:1" fill="#00b800" d="M 130.5,305.5 C 132.308,306.918 132.975,308.918 132.5,311.5C 132.03,316.018 130.863,320.351 129,324.5C 128.333,329.5 128.333,334.5 129,339.5C 131.787,344.043 134.287,348.71 136.5,353.5C 135.635,354.583 134.635,354.749 133.5,354C 130.073,349.38 125.74,346.213 120.5,344.5C 115.845,338.287 117.012,333.287 124,329.5C 125.174,324.25 125.841,318.916 126,313.5C 126.754,310.316 128.254,307.649 130.5,305.5 Z"/></g>
<g><path style="opacity:1" fill="#04f504" d="M 122.5,333.5 C 123.5,333.5 124.5,333.5 125.5,333.5C 126.051,336.807 126.384,340.14 126.5,343.5C 119.098,342.441 117.765,339.108 122.5,333.5 Z"/></g>
<g><path style="opacity:1" fill="#434343" d="M 140.5,340.5 C 142.578,343.051 145.244,344.884 148.5,346C 164.94,352.357 181.94,356.69 199.5,359C 202.31,364.785 204.976,370.618 207.5,376.5C 189.12,374.496 171.12,370.829 153.5,365.5C 150.214,363.549 147.214,361.215 144.5,358.5C 142.684,356.882 141.351,354.882 140.5,352.5C 140.5,348.5 140.5,344.5 140.5,340.5 Z"/></g>
<g><path style="opacity:1" fill="#008100" d="M 144.5,358.5 C 147.214,361.215 150.214,363.549 153.5,365.5C 162.227,373.892 171.56,381.559 181.5,388.5C 184.871,391.871 188.537,394.871 192.5,397.5C 198.352,402.372 202.019,408.539 203.5,416C 200.514,428.63 192.847,432.463 180.5,427.5C 168.225,408.56 155.558,389.893 142.5,371.5C 140.213,367.878 137.547,364.545 134.5,361.5C 135.823,360.392 137.323,360.392 139,361.5C 140.984,360.661 142.817,359.661 144.5,358.5 Z"/></g>
<g><path style="opacity:1" fill="#282828" d="M 153.5,365.5 C 171.12,370.829 189.12,374.496 207.5,376.5C 210.57,382.304 213.903,387.97 217.5,393.5C 214.554,394.655 211.554,394.821 208.5,394C 199.434,392.379 190.434,390.545 181.5,388.5C 171.56,381.559 162.227,373.892 153.5,365.5 Z"/></g>
<g><path style="opacity:0.985" fill="#dba808" d="M 124.5,352.5 C 127.808,355.471 131.141,358.471 134.5,361.5C 137.547,364.545 140.213,367.878 142.5,371.5C 142.618,374.688 143.451,377.688 145,380.5C 146.156,379.007 146.99,379.174 147.5,381C 155.014,393.579 162.014,406.412 168.5,419.5C 172.748,426.931 177.248,434.264 182,441.5C 184.447,447.355 184.947,453.355 183.5,459.5C 180.963,467.277 178.13,474.943 175,482.5C 171.589,486.812 167.089,489.145 161.5,489.5C 147.473,487.864 133.473,486.031 119.5,484C 109.55,480.794 99.5504,477.794 89.5,475C 79.5011,473.478 69.5011,472.144 59.5,471C 55.7971,469.588 53.7971,466.922 53.5,463C 55.2315,456.699 57.3982,450.532 60,444.5C 62.2363,433.956 59.5696,424.956 52,417.5C 50.3838,419.713 49.2172,422.047 48.5,424.5C 46.4205,412.172 46.2539,399.839 48,387.5C 52.7451,380.045 59.5785,376.711 68.5,377.5C 67.2475,379.339 67.2475,381.172 68.5,383C 83.6193,389.946 94.1193,385.779 100,370.5C 105.326,366.498 109.159,361.332 111.5,355C 111.011,353.862 110.678,352.695 110.5,351.5C 115.272,350.066 119.938,350.4 124.5,352.5 Z"/></g>
<g><path style="opacity:1" fill="#f0b909" d="M 116.5,361.5 C 123.882,361.94 130.048,364.94 135,370.5C 141.729,385.345 150.396,398.678 161,410.5C 163.881,414.929 166.215,419.596 168,424.5C 178.465,433.733 182.798,445.4 181,459.5C 178.872,463.89 177.539,468.557 177,473.5C 174.132,476.736 171.632,480.236 169.5,484C 166.425,485.007 163.258,485.507 160,485.5C 148.803,484.626 137.636,483.46 126.5,482C 114.505,478.669 102.505,475.335 90.5,472C 79.996,470.473 69.6626,468.306 59.5,465.5C 59.1667,464.5 58.8333,463.5 58.5,462.5C 59.4906,457.027 60.9906,451.694 63,446.5C 63.6667,439.167 63.6667,431.833 63,424.5C 60.3045,414.993 58.4712,405.327 57.5,395.5C 57.8667,391.151 60.2001,389.484 64.5,390.5C 70.0054,391.12 75.5054,391.786 81,392.5C 90.7128,391.984 98.0461,387.651 103,379.5C 105.346,371.774 109.846,365.774 116.5,361.5 Z"/></g>
<g><path style="opacity:1" fill="#b68c07" d="M 110.5,351.5 C 110.678,352.695 111.011,353.862 111.5,355C 109.159,361.332 105.326,366.498 100,370.5C 94.1193,385.779 83.6193,389.946 68.5,383C 67.2475,381.172 67.2475,379.339 68.5,377.5C 73.4176,376.719 78.4176,376.219 83.5,376C 85.5,375 87.5,374 89.5,373C 93.6334,367.225 97.6334,361.391 101.5,355.5C 104.352,353.909 107.352,352.576 110.5,351.5 Z"/></g>
<g><path style="opacity:1" fill="#fbfbfb" d="M 192.5,397.5 C 202.76,399.452 213.094,400.952 223.5,402C 236.021,420.021 251.355,435.188 269.5,447.5C 269.898,451.392 268.564,454.726 265.5,457.5C 250.582,460.37 235.582,460.87 220.5,459C 210.298,456.66 200.964,452.493 192.5,446.5C 188.239,440.307 184.239,433.974 180.5,427.5C 192.847,432.463 200.514,428.63 203.5,416C 202.019,408.539 198.352,402.372 192.5,397.5 Z"/></g>
<g><path style="opacity:1" fill="#f0b809" d="M 440.5,414.5 C 444.325,419.485 448.992,423.652 454.5,427C 458.467,429.386 459.633,432.553 458,436.5C 454.133,440.702 449.967,444.535 445.5,448C 430.656,453.417 415.989,459.417 401.5,466C 396.993,469.329 392.327,472.496 387.5,475.5C 380.453,476.72 374.453,479.887 369.5,485C 365.106,487.469 360.439,488.469 355.5,488C 352.5,486.333 349.5,484.667 346.5,483C 345.073,480.515 344.739,478.015 345.5,475.5C 382.87,463.986 414.537,443.652 440.5,414.5 Z"/></g>
<g><path style="opacity:1" fill="#c79908" d="M 168.5,419.5 C 176.009,424.851 181.509,431.851 185,440.5C 185.167,443.667 185.333,446.833 185.5,450C 185.06,458.262 183.894,466.429 182,474.5C 178.872,477.979 176.539,481.979 175,486.5C 172.742,488.43 170.242,489.93 167.5,491C 150.498,490.374 133.498,489.041 116.5,487C 109.603,485.257 102.937,482.924 96.5,480C 83.2949,477.03 69.9616,475.03 56.5,474C 52.6719,472.002 50.6719,468.835 50.5,464.5C 51.3959,457.584 53.2292,450.917 56,444.5C 56.6667,441.167 56.6667,437.833 56,434.5C 54.9335,432.717 53.4335,432.217 51.5,433C 50.2668,435.314 48.9334,437.481 47.5,439.5C 48.254,434.537 48.5874,429.537 48.5,424.5C 49.2172,422.047 50.3838,419.713 52,417.5C 59.5696,424.956 62.2363,433.956 60,444.5C 57.3982,450.532 55.2315,456.699 53.5,463C 53.7971,466.922 55.7971,469.588 59.5,471C 69.5011,472.144 79.5011,473.478 89.5,475C 99.5504,477.794 109.55,480.794 119.5,484C 133.473,486.031 147.473,487.864 161.5,489.5C 167.089,489.145 171.589,486.812 175,482.5C 178.13,474.943 180.963,467.277 183.5,459.5C 184.947,453.355 184.447,447.355 182,441.5C 177.248,434.264 172.748,426.931 168.5,419.5 Z"/></g>
<g><path style="opacity:0.978" fill="#008000" d="M 192.5,446.5 C 200.964,452.493 210.298,456.66 220.5,459C 235.582,460.87 250.582,460.37 265.5,457.5C 261.823,463.356 258.323,469.356 255,475.5C 254.396,479.415 255.563,482.749 258.5,485.5C 242.012,484.76 225.679,485.927 209.5,489C 205.979,490.592 202.646,492.425 199.5,494.5C 202.274,489.008 203.941,483.174 204.5,477C 204.378,473.682 203.711,470.515 202.5,467.5C 201.07,463.646 199.403,459.979 197.5,456.5C 196.404,453.968 195.071,451.635 193.5,449.5C 192.89,448.609 192.557,447.609 192.5,446.5 Z"/></g>
<g><path style="opacity:1" fill="#424242" d="M 283.5,456.5 C 281.231,465.805 278.065,474.805 274,483.5C 273.329,484.252 272.496,484.586 271.5,484.5C 268.243,483.538 265.243,482.038 262.5,480C 261.483,478.951 261.316,477.784 262,476.5C 267,468.5 272,460.5 277,452.5C 279.278,453.719 281.445,455.052 283.5,456.5 Z"/></g>
<g><path style="opacity:1" fill="#d8a608" d="M 444.5,409.5 C 452.185,416.429 460.351,422.762 469,428.5C 469.667,432.167 469.667,435.833 469,439.5C 468.777,441.881 467.61,443.547 465.5,444.5C 465.539,443.244 465.039,442.244 464,441.5C 456.451,446.696 448.617,451.53 440.5,456C 433.593,458.416 426.927,461.416 420.5,465C 412.02,468.087 403.353,470.754 394.5,473C 384.703,478.4 375.036,484.067 365.5,490C 355.61,492.104 347.443,489.271 341,481.5C 340.51,480.207 340.343,478.873 340.5,477.5C 342.05,476.559 343.716,475.893 345.5,475.5C 344.739,478.015 345.073,480.515 346.5,483C 349.5,484.667 352.5,486.333 355.5,488C 360.439,488.469 365.106,487.469 369.5,485C 374.453,479.887 380.453,476.72 387.5,475.5C 392.327,472.496 396.993,469.329 401.5,466C 415.989,459.417 430.656,453.417 445.5,448C 449.967,444.535 454.133,440.702 458,436.5C 459.633,432.553 458.467,429.386 454.5,427C 448.992,423.652 444.325,419.485 440.5,414.5C 441.124,412.246 442.457,410.579 444.5,409.5 Z"/></g>
<g><path style="opacity:1" fill="#242424" d="M 283.5,456.5 C 290.206,460.185 296.873,463.851 303.5,467.5C 299.919,472.994 297.752,478.994 297,485.5C 294.358,488.071 291.192,489.404 287.5,489.5C 281.824,488.606 276.491,486.94 271.5,484.5C 272.496,484.586 273.329,484.252 274,483.5C 278.065,474.805 281.231,465.805 283.5,456.5 Z"/></g>
<g><path style="opacity:0.966" fill="#007e00" d="M 321.5,473.5 C 321.687,478.845 322.02,484.178 322.5,489.5C 316.178,488.986 309.845,488.653 303.5,488.5C 305.406,482.185 307.739,476.018 310.5,470C 314.182,470.837 317.849,472.004 321.5,473.5 Z"/></g>
<g><path style="opacity:1" fill="#574303" d="M 202.5,467.5 C 203.711,470.515 204.378,473.682 204.5,477C 203.941,483.174 202.274,489.008 199.5,494.5C 197.823,496.54 196.156,498.54 194.5,500.5C 191.938,502.069 188.438,502.736 184,502.5C 181.5,502.333 179,502.167 176.5,502C 176.043,501.586 175.709,501.086 175.5,500.5C 185.066,490.716 191.566,479.049 195,465.5C 195.561,464.978 196.228,464.645 197,464.5C 198.765,465.632 200.598,466.632 202.5,467.5 Z"/></g>
<g><path style="opacity:1" fill="#916f05" d="M 438.5,463.5 C 432.245,466.432 426.245,469.766 420.5,473.5C 420.209,472.351 419.376,471.684 418,471.5C 413.336,472.166 409.336,474.166 406,477.5C 399.769,479.466 393.602,481.633 387.5,484C 380.263,487.568 373.263,491.568 366.5,496C 363.833,496.167 361.167,496.333 358.5,496.5C 352.727,495.815 347.061,494.649 341.5,493C 337.546,489.883 334.546,486.05 332.5,481.5C 333.602,480.824 334.602,480.158 335.5,479.5C 336.391,478.89 337.391,478.557 338.5,478.5C 337.527,480.068 337.36,481.735 338,483.5C 345.047,493.26 354.547,496.76 366.5,494C 371.006,492.059 375.006,489.392 378.5,486C 380.788,485.178 383.122,484.511 385.5,484C 392.4,479.075 399.734,475.075 407.5,472C 417.675,468.481 427.675,464.648 437.5,460.5C 438.386,461.325 438.719,462.325 438.5,463.5 Z"/></g>
<g><path style="opacity:1" fill="#b18808" d="M 142.5,371.5 C 155.558,389.893 168.225,408.56 180.5,427.5C 184.239,433.974 188.239,440.307 192.5,446.5C 192.557,447.609 192.89,448.609 193.5,449.5C 190.714,457.695 188.214,466.028 186,474.5C 182.204,479.902 178.037,485.068 173.5,490C 170.911,491.197 168.244,492.197 165.5,493C 151.822,492.512 138.156,491.512 124.5,490C 110.269,485.923 95.936,482.256 81.5,479C 76.5,478.333 71.5,478.333 66.5,479C 66.1667,479.333 65.8333,479.667 65.5,480C 66.3805,480.708 67.0472,481.542 67.5,482.5C 58.8036,480.768 50.4703,477.934 42.5,474C 40.5044,469.729 40.0044,465.229 41,460.5C 42.6735,453.315 44.8402,446.315 47.5,439.5C 48.9334,437.481 50.2668,435.314 51.5,433C 53.4335,432.217 54.9335,432.717 56,434.5C 56.6667,437.833 56.6667,441.167 56,444.5C 53.2292,450.917 51.3959,457.584 50.5,464.5C 50.6719,468.835 52.6719,472.002 56.5,474C 69.9616,475.03 83.2949,477.03 96.5,480C 102.937,482.924 109.603,485.257 116.5,487C 133.498,489.041 150.498,490.374 167.5,491C 170.242,489.93 172.742,488.43 175,486.5C 176.539,481.979 178.872,477.979 182,474.5C 183.894,466.429 185.06,458.262 185.5,450C 185.333,446.833 185.167,443.667 185,440.5C 181.509,431.851 176.009,424.851 168.5,419.5C 162.014,406.412 155.014,393.579 147.5,381C 146.99,379.174 146.156,379.007 145,380.5C 143.451,377.688 142.618,374.688 142.5,371.5 Z"/></g>
<g><path style="opacity:1" fill="#b58b07" d="M 465.5,444.5 C 465.141,446.371 464.141,447.871 462.5,449C 454.971,454.599 446.971,459.432 438.5,463.5C 438.719,462.325 438.386,461.325 437.5,460.5C 427.675,464.648 417.675,468.481 407.5,472C 399.734,475.075 392.4,479.075 385.5,484C 383.122,484.511 380.788,485.178 378.5,486C 375.006,489.392 371.006,492.059 366.5,494C 354.547,496.76 345.047,493.26 338,483.5C 337.36,481.735 337.527,480.068 338.5,478.5C 339.167,478.167 339.833,477.833 340.5,477.5C 340.343,478.873 340.51,480.207 341,481.5C 347.443,489.271 355.61,492.104 365.5,490C 375.036,484.067 384.703,478.4 394.5,473C 403.353,470.754 412.02,468.087 420.5,465C 426.927,461.416 433.593,458.416 440.5,456C 448.617,451.53 456.451,446.696 464,441.5C 465.039,442.244 465.539,443.244 465.5,444.5 Z"/></g>
<g><path style="opacity:1" fill="#6a5104" d="M 420.5,473.5 C 409.839,479.983 400.172,487.817 391.5,497C 387.492,500.665 383.159,503.832 378.5,506.5C 363.452,506.801 348.452,506.468 333.5,505.5C 327.458,501.792 323.791,496.459 322.5,489.5C 322.02,484.178 321.687,478.845 321.5,473.5C 326.633,474.689 331.299,476.689 335.5,479.5C 334.602,480.158 333.602,480.824 332.5,481.5C 334.546,486.05 337.546,489.883 341.5,493C 347.061,494.649 352.727,495.815 358.5,496.5C 361.167,496.333 363.833,496.167 366.5,496C 373.263,491.568 380.263,487.568 387.5,484C 393.602,481.633 399.769,479.466 406,477.5C 409.336,474.166 413.336,472.166 418,471.5C 419.376,471.684 420.209,472.351 420.5,473.5 Z"/></g>
<g><path style="opacity:1" fill="#6e5504" d="M 197.5,456.5 C 199.403,459.979 201.07,463.646 202.5,467.5C 200.598,466.632 198.765,465.632 197,464.5C 196.228,464.645 195.561,464.978 195,465.5C 191.566,479.049 185.066,490.716 175.5,500.5C 175.709,501.086 176.043,501.586 176.5,502C 179,502.167 181.5,502.333 184,502.5C 188.438,502.736 191.938,502.069 194.5,500.5C 192.23,502.975 189.563,504.975 186.5,506.5C 174.162,506.667 161.829,506.5 149.5,506C 147.103,504.282 144.436,503.115 141.5,502.5C 140.115,501.449 139.115,500.116 138.5,498.5C 141.791,496.975 145.291,496.309 149,496.5C 155.828,497.282 162.661,497.449 169.5,497C 175.9,493.934 181.067,489.434 185,483.5C 187.899,475.143 190.732,466.809 193.5,458.5C 195.026,458.006 196.359,457.339 197.5,456.5 Z"/></g>
<g><path style="opacity:1" fill="#947206" d="M 193.5,449.5 C 195.071,451.635 196.404,453.968 197.5,456.5C 196.359,457.339 195.026,458.006 193.5,458.5C 190.732,466.809 187.899,475.143 185,483.5C 181.067,489.434 175.9,493.934 169.5,497C 162.661,497.449 155.828,497.282 149,496.5C 145.291,496.309 141.791,496.975 138.5,498.5C 139.115,500.116 140.115,501.449 141.5,502.5C 144.436,503.115 147.103,504.282 149.5,506C 161.829,506.5 174.162,506.667 186.5,506.5C 182.917,508.36 179.251,510.027 175.5,511.5C 170.833,511.5 166.167,511.5 161.5,511.5C 130.747,499.978 99.4137,490.311 67.5,482.5C 67.0472,481.542 66.3805,480.708 65.5,480C 65.8333,479.667 66.1667,479.333 66.5,479C 71.5,478.333 76.5,478.333 81.5,479C 95.936,482.256 110.269,485.923 124.5,490C 138.156,491.512 151.822,492.512 165.5,493C 168.244,492.197 170.911,491.197 173.5,490C 178.037,485.068 182.204,479.902 186,474.5C 188.214,466.028 190.714,457.695 193.5,449.5 Z"/></g>
<g><path style="opacity:1" fill="#987506" d="M 333.5,505.5 C 348.452,506.468 363.452,506.801 378.5,506.5C 373.437,509.098 368.104,510.765 362.5,511.5C 356.5,511.5 350.5,511.5 344.5,511.5C 340.427,510.296 336.761,508.296 333.5,505.5 Z"/></g>
</svg>
