<?xml version="1.0" encoding="UTF-8"?>
<!DOCTYPE svg PUBLIC "-//W3C//DTD SVG 1.1//EN" "http://www.w3.org/Graphics/SVG/1.1/DTD/svg11.dtd">
<svg xmlns="http://www.w3.org/2000/svg" version="1.1" width="512px" height="512px" style="shape-rendering:geometricPrecision; text-rendering:geometricPrecision; image-rendering:optimizeQuality; fill-rule:evenodd; clip-rule:evenodd" xmlns:xlink="http://www.w3.org/1999/xlink">
<g><path style="opacity:0.982" fill="#d5d592" d="M 237.5,-0.5 C 246.167,-0.5 254.833,-0.5 263.5,-0.5C 302.184,6.34986 325.684,29.0165 334,67.5C 336.153,87.4552 337.819,107.455 339,127.5C 341.138,143.914 346.472,159.247 355,173.5C 366.79,194.75 380.79,214.416 397,232.5C 398.765,235.032 400.265,237.699 401.5,240.5C 392.263,238.05 383.596,234.217 375.5,229C 365.303,222.734 355.636,215.734 346.5,208C 343.232,206.787 339.899,206.454 336.5,207C 330.73,210.277 325.397,214.11 320.5,218.5C 315.517,201.859 308.85,185.859 300.5,170.5C 299.833,169.167 299.167,167.833 298.5,166.5C 297.035,162.976 296.035,159.309 295.5,155.5C 298.163,148.872 298.83,142.206 297.5,135.5C 295.736,131.401 292.736,128.734 288.5,127.5C 299.142,118.896 301.808,108.23 296.5,95.5C 293.448,83.7814 286.115,76.448 274.5,73.5C 262.891,75.1132 255.224,81.4465 251.5,92.5C 250.607,94.9026 249.94,97.4026 249.5,100C 250.833,105.159 252.833,109.992 255.5,114.5C 244.78,112.077 234.113,112.077 223.5,114.5C 230.708,99.2769 227.374,86.7769 213.5,77C 205.524,73.9029 200.024,76.4029 197,84.5C 192.066,98.0025 192.399,111.336 198,124.5C 199.704,126.373 201.537,128.04 203.5,129.5C 200.547,133.625 197.381,137.625 194,141.5C 193.517,142.448 193.351,143.448 193.5,144.5C 192.861,145.097 192.528,145.93 192.5,147C 192.387,148.699 193.053,149.866 194.5,150.5C 197.167,154.167 199.833,157.833 202.5,161.5C 200.707,163.426 199.707,165.759 199.5,168.5C 198.85,170.435 198.517,172.435 198.5,174.5C 197.906,179.298 196.74,183.965 195,188.5C 189.299,197.903 184.132,207.57 179.5,217.5C 176.122,223.997 174.122,230.997 173.5,238.5C 167.473,254.562 160.307,270.229 152,285.5C 144.402,302.322 140.569,319.988 140.5,338.5C 140.5,339.167 140.5,339.833 140.5,340.5C 140,346.028 140.667,351.362 142.5,356.5C 145.895,359.902 149.562,362.902 153.5,365.5C 165.939,376.881 178.939,387.548 192.5,397.5C 196.937,401.441 200.437,406.108 203,411.5C 204.834,418.655 202.667,424.155 196.5,428C 191.227,429.767 185.894,429.934 180.5,428.5C 168.564,408.947 155.898,389.947 142.5,371.5C 137.374,364.54 131.374,358.373 124.5,353C 120.025,350.41 115.359,349.91 110.5,351.5C 107.352,352.576 104.352,353.909 101.5,355.5C 100.164,353.99 98.9973,352.323 98,350.5C 97.2119,343.444 97.5452,336.444 99,329.5C 105.728,315.044 112.728,300.711 120,286.5C 124.732,273.637 129.066,260.637 133,247.5C 136.241,240.011 140.241,233.011 145,226.5C 154.381,215.455 163.381,204.121 172,192.5C 176.773,185.956 180.773,178.956 184,171.5C 183.741,141.661 182.908,111.827 181.5,82C 179.25,56.0786 186.917,33.7453 204.5,15C 214.297,7.09939 225.297,1.93272 237.5,-0.5 Z"/></g>
<g><path style="opacity:1" fill="#787876" d="M 206.5,67.5 C 216.326,67.8266 223.159,72.4933 227,81.5C 227.749,82.635 227.583,83.635 226.5,84.5C 221.762,75.1086 214.095,70.1086 203.5,69.5C 204.602,68.8243 205.602,68.1577 206.5,67.5 Z"/></g>
<g><path style="opacity:1" fill="#7f7e7d" d="M 280.5,67.5 C 288.029,68.2063 293.529,71.8729 297,78.5C 297.667,80.1667 297.667,81.8333 297,83.5C 292.867,76.8328 287.033,72.1661 279.5,69.5C 279.863,68.8165 280.196,68.1499 280.5,67.5 Z"/></g>
<g><path style="opacity:1" fill="#c8c8c8" d="M 296.5,95.5 C 290.49,92.3271 284.157,89.8271 277.5,88C 271.5,87.3333 265.5,87.3333 259.5,88C 256.676,89.2446 254.009,90.7446 251.5,92.5C 255.224,81.4465 262.891,75.1132 274.5,73.5C 286.115,76.448 293.448,83.7814 296.5,95.5 Z"/></g>
<g><path style="opacity:1" fill="#ececec" d="M 223.5,114.5 C 223.158,115.338 222.492,115.672 221.5,115.5C 221.38,108.643 219.547,102.31 216,96.5C 210.078,91.8701 205.078,92.5368 201,98.5C 199.768,105.839 200.768,112.839 204,119.5C 205.73,121.402 207.563,123.069 209.5,124.5C 207.909,126.633 205.909,128.299 203.5,129.5C 201.537,128.04 199.704,126.373 198,124.5C 192.399,111.336 192.066,98.0025 197,84.5C 200.024,76.4029 205.524,73.9029 213.5,77C 227.374,86.7769 230.708,99.2769 223.5,114.5 Z"/></g>
<g><path style="opacity:1" fill="#f8f7f7" d="M 296.5,95.5 C 301.808,108.23 299.142,118.896 288.5,127.5C 284.838,127.277 281.505,126.277 278.5,124.5C 284.955,119.92 287.955,113.586 287.5,105.5C 285.947,95.237 280.281,90.9037 270.5,92.5C 265.776,94.5756 262.942,98.2423 262,103.5C 261.092,108.689 261.592,113.689 263.5,118.5C 260.55,117.692 257.883,116.358 255.5,114.5C 252.833,109.992 250.833,105.159 249.5,100C 249.94,97.4026 250.607,94.9026 251.5,92.5C 254.009,90.7446 256.676,89.2446 259.5,88C 265.5,87.3333 271.5,87.3333 277.5,88C 284.157,89.8271 290.49,92.3271 296.5,95.5 Z"/></g>
<g><path style="opacity:1" fill="#060605" d="M 270.5,92.5 C 273.001,92.5109 273.168,93.1776 271,94.5C 270.236,98.2435 271.736,100.577 275.5,101.5C 277.16,103.99 278.827,106.49 280.5,109C 284.262,110.311 286.595,109.144 287.5,105.5C 287.955,113.586 284.955,119.92 278.5,124.5C 276.784,124.371 275.117,124.038 273.5,123.5C 270.46,121.654 267.127,120.321 263.5,119.5C 263.5,119.167 263.5,118.833 263.5,118.5C 261.592,113.689 261.092,108.689 262,103.5C 262.942,98.2423 265.776,94.5756 270.5,92.5 Z"/></g>
<g><path style="opacity:1" fill="#10100f" d="M 221.5,115.5 C 217.524,118.469 213.524,121.469 209.5,124.5C 207.563,123.069 205.73,121.402 204,119.5C 200.768,112.839 199.768,105.839 201,98.5C 205.078,92.5368 210.078,91.8701 216,96.5C 219.547,102.31 221.38,108.643 221.5,115.5 Z"/></g>
<g><path style="opacity:1" fill="#2e2e2e" d="M 270.5,92.5 C 280.281,90.9037 285.947,95.237 287.5,105.5C 286.595,109.144 284.262,110.311 280.5,109C 278.827,106.49 277.16,103.99 275.5,101.5C 271.736,100.577 270.236,98.2435 271,94.5C 273.168,93.1776 273.001,92.5109 270.5,92.5 Z"/></g>
<g><path style="opacity:1" fill="#818181" d="M 275.5,101.5 C 273.919,99.8583 273.253,97.8583 273.5,95.5C 280.102,96.7695 283.436,100.769 283.5,107.5C 280.612,107.78 279.112,106.447 279,103.5C 278.184,102.177 277.017,101.511 275.5,101.5 Z"/></g>
<g><path style="opacity:1" fill="#898989" d="M 206.5,96.5 C 213.968,96.3042 217.301,99.9709 216.5,107.5C 215.022,107.762 213.689,107.429 212.5,106.5C 210.039,103.388 208.039,100.055 206.5,96.5 Z"/></g>
<g><path style="opacity:1" fill="#797979" d="M 236.5,102.5 C 239.187,102.336 241.854,102.503 244.5,103C 247.188,103.782 248.188,105.282 247.5,107.5C 244.662,106.04 241.662,105.04 238.5,104.5C 237.287,104.253 236.62,103.586 236.5,102.5 Z"/></g>
<g><path style="opacity:1" fill="#efba13" d="M 255.5,114.5 C 257.883,116.358 260.55,117.692 263.5,118.5C 263.5,118.833 263.5,119.167 263.5,119.5C 258.058,121.838 252.725,124.671 247.5,128C 245.333,131.197 242.833,134.03 240,136.5C 229.647,158.48 235.147,163.646 256.5,152C 258.88,148.619 261.88,145.953 265.5,144C 269.515,137.556 272.182,130.723 273.5,123.5C 275.117,124.038 276.784,124.371 278.5,124.5C 281.505,126.277 284.838,127.277 288.5,127.5C 292.736,128.734 295.736,131.401 297.5,135.5C 297.665,138.518 297.498,141.518 297,144.5C 295.128,142.153 292.961,140.153 290.5,138.5C 286.895,138.799 283.561,139.965 280.5,142C 271.997,147.084 263.664,152.417 255.5,158C 234.938,170.089 216.605,167.423 200.5,150C 198.35,148.589 196.016,147.755 193.5,147.5C 193.5,146.5 193.5,145.5 193.5,144.5C 193.351,143.448 193.517,142.448 194,141.5C 197.381,137.625 200.547,133.625 203.5,129.5C 205.909,128.299 207.909,126.633 209.5,124.5C 213.524,121.469 217.524,118.469 221.5,115.5C 222.492,115.672 223.158,115.338 223.5,114.5C 234.113,112.077 244.78,112.077 255.5,114.5 Z"/></g>
<g><path style="opacity:1" fill="#1e1603" d="M 225.5,116.5 C 227.103,116.312 228.437,116.812 229.5,118C 227.324,118.163 225.491,118.996 224,120.5C 223.7,118.934 224.2,117.601 225.5,116.5 Z"/></g>
<g><path style="opacity:1" fill="#231b04" d="M 246.5,117.5 C 248.681,117.284 250.347,118.117 251.5,120C 249.529,120.014 247.529,119.681 245.5,119C 246.056,118.617 246.389,118.117 246.5,117.5 Z"/></g>
<g><path style="opacity:1" fill="#f6cb44" d="M 263.5,119.5 C 267.127,120.321 270.46,121.654 273.5,123.5C 272.182,130.723 269.515,137.556 265.5,144C 261.88,145.953 258.88,148.619 256.5,152C 235.147,163.646 229.647,158.48 240,136.5C 242.833,134.03 245.333,131.197 247.5,128C 252.725,124.671 258.058,121.838 263.5,119.5 Z"/></g>
<g><path style="opacity:1" fill="#f9d870" d="M 258.5,126.5 C 261.119,126.232 263.619,126.565 266,127.5C 266.701,130.928 266.368,134.262 265,137.5C 260.979,143.859 255.479,148.359 248.5,151C 245.854,151.497 243.187,151.664 240.5,151.5C 240.211,148.351 240.711,145.351 242,142.5C 247.422,136.909 252.922,131.575 258.5,126.5 Z"/></g>
<g><path style="opacity:1" fill="#fbe6a4" d="M 253.5,134.5 C 255.167,134.5 256.833,134.5 258.5,134.5C 258.167,140.833 254.833,144.167 248.5,144.5C 249.085,140.663 250.752,137.33 253.5,134.5 Z"/></g>
<g><path style="opacity:1" fill="#d1a10b" d="M 297.5,135.5 C 298.83,142.206 298.163,148.872 295.5,155.5C 280.933,165.129 265.933,174.296 250.5,183C 240.392,185.762 230.725,184.762 221.5,180C 214.636,174.302 208.303,168.135 202.5,161.5C 199.833,157.833 197.167,154.167 194.5,150.5C 194.56,149.957 194.893,149.624 195.5,149.5C 200.219,151.715 204.219,154.881 207.5,159C 223.233,169.912 239.233,170.246 255.5,160C 266.929,152.293 278.596,145.127 290.5,138.5C 292.961,140.153 295.128,142.153 297,144.5C 297.498,141.518 297.665,138.518 297.5,135.5 Z"/></g>
<g><path style="opacity:1" fill="#534006" d="M 290.5,138.5 C 278.596,145.127 266.929,152.293 255.5,160C 239.233,170.246 223.233,169.912 207.5,159C 204.219,154.881 200.219,151.715 195.5,149.5C 194.893,149.624 194.56,149.957 194.5,150.5C 193.053,149.866 192.387,148.699 192.5,147C 192.528,145.93 192.861,145.097 193.5,144.5C 193.5,145.5 193.5,146.5 193.5,147.5C 196.016,147.755 198.35,148.589 200.5,150C 216.605,167.423 234.938,170.089 255.5,158C 263.664,152.417 271.997,147.084 280.5,142C 283.561,139.965 286.895,138.799 290.5,138.5 Z"/></g>
<g><path style="opacity:1" fill="#a6a6a5" d="M 295.5,155.5 C 296.035,159.309 297.035,162.976 298.5,166.5C 289.647,163.51 283.813,166.51 281,175.5C 277.947,177.43 275.447,179.93 273.5,183C 267.556,186.611 261.889,190.611 256.5,195C 246.646,198.851 236.646,199.351 226.5,196.5C 223.617,194.446 220.617,192.612 217.5,191C 213.84,183.991 209.34,177.491 204,171.5C 202.871,169.859 201.371,168.859 199.5,168.5C 199.707,165.759 200.707,163.426 202.5,161.5C 208.303,168.135 214.636,174.302 221.5,180C 230.725,184.762 240.392,185.762 250.5,183C 265.933,174.296 280.933,165.129 295.5,155.5 Z"/></g>
<g><path style="opacity:1" fill="#fafafa" d="M 300.5,170.5 C 308.85,185.859 315.517,201.859 320.5,218.5C 287.999,242.606 251.333,253.772 210.5,252C 203.667,253.5 199.5,257.667 198,264.5C 191.121,292.864 189.621,321.531 193.5,350.5C 183.811,349.581 174.145,348.414 164.5,347C 156.666,343.667 148.666,340.833 140.5,338.5C 140.569,319.988 144.402,302.322 152,285.5C 160.307,270.229 167.473,254.562 173.5,238.5C 177.586,239.154 180.919,237.988 183.5,235C 187.749,233.874 192.082,233.208 196.5,233C 197.672,232.581 198.672,231.915 199.5,231C 194.838,228.343 189.838,226.176 184.5,224.5C 182.407,222.342 180.741,220.008 179.5,217.5C 184.132,207.57 189.299,197.903 195,188.5C 196.74,183.965 197.906,179.298 198.5,174.5C 199.212,173.261 200.212,172.761 201.5,173C 202.958,175.46 204.791,177.627 207,179.5C 209.141,189.104 214.641,196.104 223.5,200.5C 235.822,203.813 247.822,202.98 259.5,198C 265.241,192.95 271.575,188.617 278.5,185C 282.5,180.333 286.5,175.667 290.5,171C 293.817,170.502 297.15,170.335 300.5,170.5 Z"/></g>
<g><path style="opacity:1" fill="#e8e8c4" d="M 313.5,161.5 C 315.628,160.371 317.961,160.204 320.5,161C 325.416,163.707 330.249,166.541 335,169.5C 337.179,174.908 336.679,180.075 333.5,185C 331.866,185.494 330.199,185.66 328.5,185.5C 325.71,179.918 321.877,174.918 317,170.5C 316.339,167.198 315.172,164.198 313.5,161.5 Z"/></g>
<g><path style="opacity:1" fill="#d1d1d1" d="M 298.5,166.5 C 299.167,167.833 299.833,169.167 300.5,170.5C 297.15,170.335 293.817,170.502 290.5,171C 286.5,175.667 282.5,180.333 278.5,185C 271.575,188.617 265.241,192.95 259.5,198C 247.822,202.98 235.822,203.813 223.5,200.5C 214.641,196.104 209.141,189.104 207,179.5C 204.791,177.627 202.958,175.46 201.5,173C 200.212,172.761 199.212,173.261 198.5,174.5C 198.517,172.435 198.85,170.435 199.5,168.5C 201.371,168.859 202.871,169.859 204,171.5C 209.34,177.491 213.84,183.991 217.5,191C 220.617,192.612 223.617,194.446 226.5,196.5C 236.646,199.351 246.646,198.851 256.5,195C 261.889,190.611 267.556,186.611 273.5,183C 275.447,179.93 277.947,177.43 281,175.5C 283.813,166.51 289.647,163.51 298.5,166.5 Z"/></g>
<g><path style="opacity:0.997" fill="#50007f" d="M 401.5,240.5 C 424.761,248.657 448.761,252.49 473.5,252C 478.428,253.927 481.594,257.427 483,262.5C 498.221,319.119 490.721,372.452 460.5,422.5C 450.959,434.723 440.959,446.723 430.5,458.5C 426.543,461.122 422.876,464.122 419.5,467.5C 397.382,485.227 372.715,498.227 345.5,506.5C 341.434,506.693 337.434,506.36 333.5,505.5C 322.621,502.391 311.955,498.724 301.5,494.5C 298.534,492.012 295.201,490.012 291.5,488.5C 282.838,482.841 274.172,477.174 265.5,471.5C 263.167,469.833 261.167,467.833 259.5,465.5C 257.167,463.5 254.833,461.5 252.5,459.5C 235.375,442.878 221.542,423.878 211,402.5C 210.292,401.619 209.458,400.953 208.5,400.5C 205.302,392.238 202.302,383.905 199.5,375.5C 198.141,369.396 196.474,363.396 194.5,357.5C 194.007,355.194 193.674,352.861 193.5,350.5C 189.621,321.531 191.121,292.864 198,264.5C 199.5,257.667 203.667,253.5 210.5,252C 251.333,253.772 287.999,242.606 320.5,218.5C 325.397,214.11 330.73,210.277 336.5,207C 339.899,206.454 343.232,206.787 346.5,208C 355.636,215.734 365.303,222.734 375.5,229C 383.596,234.217 392.263,238.05 401.5,240.5 Z"/></g>
<g><path style="opacity:1" fill="#d4d4d4" d="M 179.5,217.5 C 180.741,220.008 182.407,222.342 184.5,224.5C 189.838,226.176 194.838,228.343 199.5,231C 198.672,231.915 197.672,232.581 196.5,233C 192.082,233.208 187.749,233.874 183.5,235C 180.919,237.988 177.586,239.154 173.5,238.5C 174.122,230.997 176.122,223.997 179.5,217.5 Z"/></g>
<g><path style="opacity:1" fill="#15bf09" d="M 380.5,311.5 C 395.631,310.629 401.965,317.629 399.5,332.5C 377.991,356.175 355.325,378.675 331.5,400C 326.183,402.126 321.183,401.459 316.5,398C 304.637,386.471 293.137,374.638 282,362.5C 278.888,350.755 283.388,343.755 295.5,341.5C 298.197,342.232 300.864,343.066 303.5,344C 310.5,351 317.5,358 324.5,365C 325.167,365.667 325.833,365.667 326.5,365C 342.862,348.971 358.862,332.638 374.5,316C 376.401,314.252 378.401,312.752 380.5,311.5 Z"/></g>
<g><path style="opacity:1" fill="#030303" d="M 140.5,338.5 C 148.666,340.833 156.666,343.667 164.5,347C 174.145,348.414 183.811,349.581 193.5,350.5C 193.674,352.861 194.007,355.194 194.5,357.5C 178.525,356.118 163.192,352.284 148.5,346C 145.244,344.884 142.578,343.051 140.5,340.5C 140.5,339.833 140.5,339.167 140.5,338.5 Z"/></g>
<g><path style="opacity:1" fill="#434343" d="M 140.5,340.5 C 142.578,343.051 145.244,344.884 148.5,346C 163.192,352.284 178.525,356.118 194.5,357.5C 196.474,363.396 198.141,369.396 199.5,375.5C 183.849,373.419 168.515,370.086 153.5,365.5C 149.562,362.902 145.895,359.902 142.5,356.5C 140.667,351.362 140,346.028 140.5,340.5 Z"/></g>
<g><path style="opacity:1" fill="#b68c07" d="M 110.5,351.5 C 110.678,352.695 111.011,353.862 111.5,355C 109.159,361.332 105.326,366.498 100,370.5C 93.8259,385.973 83.1593,389.973 68,382.5C 67.3603,380.735 67.5269,379.068 68.5,377.5C 73.4176,376.719 78.4176,376.219 83.5,376C 85.5,375 87.5,374 89.5,373C 93.6334,367.225 97.6334,361.391 101.5,355.5C 104.352,353.909 107.352,352.576 110.5,351.5 Z"/></g>
<g><path style="opacity:1" fill="#f0b909" d="M 157.5,407.5 C 162.337,412.206 165.837,417.873 168,424.5C 173.188,429.199 177.021,434.866 179.5,441.5C 179.886,445.692 180.553,449.859 181.5,454C 181.418,457.235 180.918,460.402 180,463.5C 178.246,467.325 176.913,471.325 176,475.5C 173.597,477.305 171.93,479.638 171,482.5C 169.829,483.893 168.329,484.727 166.5,485C 153.107,485.061 139.774,484.061 126.5,482C 114.505,478.669 102.505,475.335 90.5,472C 79.996,470.473 69.6626,468.306 59.5,465.5C 59.1667,464.5 58.8333,463.5 58.5,462.5C 59.4906,457.027 60.9906,451.694 63,446.5C 63.6667,439.167 63.6667,431.833 63,424.5C 60.3045,414.993 58.4712,405.327 57.5,395.5C 57.7605,393.813 58.4272,392.313 59.5,391C 69.4876,391.332 79.4876,391.332 89.5,391C 91.5,390 93.5,389 95.5,388C 96.6667,385.5 98.5,383.667 101,382.5C 103.462,377.097 106.296,371.931 109.5,367C 111.833,365.333 114.167,363.667 116.5,362C 123.902,361.948 130.069,364.781 135,370.5C 139.75,379.67 144.75,388.67 150,397.5C 152.352,401.125 154.852,404.458 157.5,407.5 Z"/></g>
<g><path style="opacity:1" fill="#202020" d="M 153.5,365.5 C 168.515,370.086 183.849,373.419 199.5,375.5C 202.302,383.905 205.302,392.238 208.5,400.5C 203.292,398.992 197.959,397.992 192.5,397.5C 178.939,387.548 165.939,376.881 153.5,365.5 Z"/></g>
<g><path style="opacity:1" fill="#f9f9f9" d="M 192.5,397.5 C 197.959,397.992 203.292,398.992 208.5,400.5C 209.458,400.953 210.292,401.619 211,402.5C 221.542,423.878 235.375,442.878 252.5,459.5C 231.198,463.081 211.532,459.081 193.5,447.5C 188.932,441.377 184.599,435.044 180.5,428.5C 185.894,429.934 191.227,429.767 196.5,428C 202.667,424.155 204.834,418.655 203,411.5C 200.437,406.108 196.937,401.441 192.5,397.5 Z"/></g>
<g><path style="opacity:0.959" fill="#daa70d" d="M 460.5,422.5 C 469.063,425.137 471.897,430.804 469,439.5C 468.777,441.881 467.61,443.547 465.5,444.5C 465.539,443.244 465.039,442.244 464,441.5C 461.455,442.522 458.955,443.688 456.5,445C 449.323,452.339 440.656,456.839 430.5,458.5C 440.959,446.723 450.959,434.723 460.5,422.5 Z"/></g>
<g><path style="opacity:1" fill="#ce9e08" d="M 142.5,371.5 C 142.618,374.688 143.451,377.688 145,380.5C 146.156,379.007 146.99,379.174 147.5,381C 154.864,392.362 161.364,404.196 167,416.5C 168.667,417.5 170.333,418.5 172,419.5C 174.528,424.702 177.861,429.369 182,433.5C 183.275,435.717 184.275,438.051 185,440.5C 185.667,446.833 185.667,453.167 185,459.5C 183.524,464.406 182.524,469.406 182,474.5C 178.872,477.979 176.539,481.979 175,486.5C 173.59,487.787 172.09,488.954 170.5,490C 162.7,492.235 155.033,491.902 147.5,489C 134.308,488.19 121.308,486.19 108.5,483C 101.409,479.822 94.0758,477.488 86.5,476C 76.2874,474.601 66.1208,473.101 56,471.5C 53.3378,469.336 52.1712,466.502 52.5,463C 53.0555,455.597 55.2222,448.764 59,442.5C 60.1616,436.443 59.1616,430.777 56,425.5C 53.4781,422.674 51.4781,423.007 50,426.5C 49.8138,429.036 49.3138,431.369 48.5,433.5C 48.5,430.5 48.5,427.5 48.5,424.5C 49.2172,422.047 50.3838,419.713 52,417.5C 59.5696,424.956 62.2363,433.956 60,444.5C 58.0524,449.825 56.219,455.158 54.5,460.5C 54.7953,466.297 57.7953,469.797 63.5,471C 81.4514,472.489 98.7847,476.489 115.5,483C 133.379,487.379 151.379,488.379 169.5,486C 179.883,475.016 184.05,461.849 182,446.5C 181.626,444.509 180.793,442.842 179.5,441.5C 177.021,434.866 173.188,429.199 168,424.5C 165.837,417.873 162.337,412.206 157.5,407.5C 157.657,406.127 157.49,404.793 157,403.5C 149.134,391.976 142.134,379.976 136,367.5C 130.211,362.017 123.378,359.517 115.5,360C 112.275,363.193 108.775,366.026 105,368.5C 101.809,374.359 97.9754,379.859 93.5,385C 83.2366,389.4 72.9033,389.4 62.5,385C 59.6793,383.379 59.0126,381.212 60.5,378.5C 63.0545,377.612 65.7212,377.279 68.5,377.5C 67.5269,379.068 67.3603,380.735 68,382.5C 83.1593,389.973 93.8259,385.973 100,370.5C 105.326,366.498 109.159,361.332 111.5,355C 111.011,353.862 110.678,352.695 110.5,351.5C 115.359,349.91 120.025,350.41 124.5,353C 131.374,358.373 137.374,364.54 142.5,371.5 Z"/></g>
<g><path style="opacity:0.978" fill="#d4d490" d="M 193.5,447.5 C 211.532,459.081 231.198,463.081 252.5,459.5C 254.833,461.5 257.167,463.5 259.5,465.5C 257.19,469.305 255.523,473.471 254.5,478C 255.436,480.705 256.769,483.205 258.5,485.5C 242.012,484.76 225.679,485.927 209.5,489C 205.979,490.592 202.646,492.425 199.5,494.5C 206.557,481.373 205.891,468.707 197.5,456.5C 196.404,453.968 195.071,451.635 193.5,449.5C 193.5,448.833 193.5,448.167 193.5,447.5 Z"/></g>
<g><path style="opacity:1" fill="#b48a08" d="M 142.5,371.5 C 155.898,389.947 168.564,408.947 180.5,428.5C 184.599,435.044 188.932,441.377 193.5,447.5C 193.5,448.167 193.5,448.833 193.5,449.5C 190.714,457.695 188.214,466.028 186,474.5C 184.811,476.233 183.644,477.9 182.5,479.5C 179.873,483.208 176.873,486.708 173.5,490C 169.26,492.192 164.76,493.358 160,493.5C 138.17,493.151 117.004,489.317 96.5,482C 86.209,478.625 75.8757,477.958 65.5,480C 66.3805,480.708 67.0472,481.542 67.5,482.5C 58.8036,480.768 50.4703,477.934 42.5,474C 40.5044,469.729 40.0044,465.229 41,460.5C 43.6102,451.507 46.1102,442.507 48.5,433.5C 49.3138,431.369 49.8138,429.036 50,426.5C 51.4781,423.007 53.4781,422.674 56,425.5C 59.1616,430.777 60.1616,436.443 59,442.5C 55.2222,448.764 53.0555,455.597 52.5,463C 52.1712,466.502 53.3378,469.336 56,471.5C 66.1208,473.101 76.2874,474.601 86.5,476C 94.0758,477.488 101.409,479.822 108.5,483C 121.308,486.19 134.308,488.19 147.5,489C 155.033,491.902 162.7,492.235 170.5,490C 172.09,488.954 173.59,487.787 175,486.5C 176.539,481.979 178.872,477.979 182,474.5C 182.524,469.406 183.524,464.406 185,459.5C 185.667,453.167 185.667,446.833 185,440.5C 184.275,438.051 183.275,435.717 182,433.5C 177.861,429.369 174.528,424.702 172,419.5C 170.333,418.5 168.667,417.5 167,416.5C 161.364,404.196 154.864,392.362 147.5,381C 146.99,379.174 146.156,379.007 145,380.5C 143.451,377.688 142.618,374.688 142.5,371.5 Z"/></g>
<g><path style="opacity:0.988" fill="#9e7907" d="M 465.5,444.5 C 465.141,446.371 464.141,447.871 462.5,449C 459.833,451 457.167,453 454.5,455C 442.98,460.925 431.646,467.092 420.5,473.5C 420.423,472.25 419.756,471.417 418.5,471C 419.5,470.667 420.5,470.333 421.5,470C 420.244,469.583 419.577,468.75 419.5,467.5C 422.876,464.122 426.543,461.122 430.5,458.5C 440.656,456.839 449.323,452.339 456.5,445C 458.955,443.688 461.455,442.522 464,441.5C 465.039,442.244 465.539,443.244 465.5,444.5 Z"/></g>
<g><path style="opacity:0.938" fill="#020202" d="M 259.5,465.5 C 261.167,467.833 263.167,469.833 265.5,471.5C 260.56,475.141 260.56,478.641 265.5,482C 273.755,486.827 282.422,488.994 291.5,488.5C 295.201,490.012 298.534,492.012 301.5,494.5C 285.576,499.27 271.242,496.27 258.5,485.5C 256.769,483.205 255.436,480.705 254.5,478C 255.523,473.471 257.19,469.305 259.5,465.5 Z"/></g>
<g><path style="opacity:1" fill="#5d4703" d="M 197.5,456.5 C 205.891,468.707 206.557,481.373 199.5,494.5C 196.757,499.578 192.757,503.245 187.5,505.5C 176.828,505.667 166.161,505.5 155.5,505C 152.473,504.139 149.806,502.639 147.5,500.5C 148.171,499.054 149.338,498.388 151,498.5C 156.806,499.554 162.639,499.72 168.5,499C 174.931,494.905 180.431,489.738 185,483.5C 187.899,475.143 190.732,466.809 193.5,458.5C 195.026,458.006 196.359,457.339 197.5,456.5 Z"/></g>
<g><path style="opacity:1" fill="#deaa09" d="M 157.5,407.5 C 154.852,404.458 152.352,401.125 150,397.5C 144.75,388.67 139.75,379.67 135,370.5C 130.069,364.781 123.902,361.948 116.5,362C 114.167,363.667 111.833,365.333 109.5,367C 106.296,371.931 103.462,377.097 101,382.5C 98.5,383.667 96.6667,385.5 95.5,388C 93.5,389 91.5,390 89.5,391C 79.4876,391.332 69.4876,391.332 59.5,391C 58.4272,392.313 57.7605,393.813 57.5,395.5C 58.4712,405.327 60.3045,414.993 63,424.5C 63.6667,431.833 63.6667,439.167 63,446.5C 60.9906,451.694 59.4906,457.027 58.5,462.5C 58.8333,463.5 59.1667,464.5 59.5,465.5C 69.6626,468.306 79.996,470.473 90.5,472C 102.505,475.335 114.505,478.669 126.5,482C 139.774,484.061 153.107,485.061 166.5,485C 168.329,484.727 169.829,483.893 171,482.5C 171.93,479.638 173.597,477.305 176,475.5C 176.913,471.325 178.246,467.325 180,463.5C 180.918,460.402 181.418,457.235 181.5,454C 180.553,449.859 179.886,445.692 179.5,441.5C 180.793,442.842 181.626,444.509 182,446.5C 184.05,461.849 179.883,475.016 169.5,486C 151.379,488.379 133.379,487.379 115.5,483C 98.7847,476.489 81.4514,472.489 63.5,471C 57.7953,469.797 54.7953,466.297 54.5,460.5C 56.219,455.158 58.0524,449.825 60,444.5C 62.2363,433.956 59.5696,424.956 52,417.5C 50.3838,419.713 49.2172,422.047 48.5,424.5C 46.8635,413.237 46.3635,401.904 47,390.5C 49.1653,383.833 53.6653,379.833 60.5,378.5C 59.0126,381.212 59.6793,383.379 62.5,385C 72.9033,389.4 83.2366,389.4 93.5,385C 97.9754,379.859 101.809,374.359 105,368.5C 108.775,366.026 112.275,363.193 115.5,360C 123.378,359.517 130.211,362.017 136,367.5C 142.134,379.976 149.134,391.976 157,403.5C 157.49,404.793 157.657,406.127 157.5,407.5 Z"/></g>
<g><path style="opacity:1" fill="#2d2c2e" d="M 265.5,471.5 C 274.172,477.174 282.838,482.841 291.5,488.5C 282.422,488.994 273.755,486.827 265.5,482C 260.56,478.641 260.56,475.141 265.5,471.5 Z"/></g>
<g><path style="opacity:1" fill="#9b7706" d="M 182.5,479.5 C 179.463,486.708 174.463,492.208 167.5,496C 158.299,496.353 149.132,495.853 140,494.5C 128.332,494.297 127.499,496.964 137.5,502.5C 114.157,495.501 90.8239,488.834 67.5,482.5C 67.0472,481.542 66.3805,480.708 65.5,480C 75.8757,477.958 86.209,478.625 96.5,482C 117.004,489.317 138.17,493.151 160,493.5C 164.76,493.358 169.26,492.192 173.5,490C 176.873,486.708 179.873,483.208 182.5,479.5 Z"/></g>
<g><path style="opacity:1" fill="#674e09" d="M 419.5,467.5 C 419.577,468.75 420.244,469.583 421.5,470C 420.5,470.333 419.5,470.667 418.5,471C 419.756,471.417 420.423,472.25 420.5,473.5C 409.839,479.983 400.172,487.817 391.5,497C 387.492,500.665 383.159,503.832 378.5,506.5C 367.5,506.5 356.5,506.5 345.5,506.5C 372.715,498.227 397.382,485.227 419.5,467.5 Z"/></g>
<g><path style="opacity:1" fill="#856605" d="M 193.5,449.5 C 195.071,451.635 196.404,453.968 197.5,456.5C 196.359,457.339 195.026,458.006 193.5,458.5C 190.732,466.809 187.899,475.143 185,483.5C 180.431,489.738 174.931,494.905 168.5,499C 162.639,499.72 156.806,499.554 151,498.5C 149.338,498.388 148.171,499.054 147.5,500.5C 149.806,502.639 152.473,504.139 155.5,505C 166.161,505.5 176.828,505.667 187.5,505.5C 183.779,508.027 179.779,510.027 175.5,511.5C 170.833,511.5 166.167,511.5 161.5,511.5C 153.356,508.896 145.356,505.896 137.5,502.5C 127.499,496.964 128.332,494.297 140,494.5C 149.132,495.853 158.299,496.353 167.5,496C 174.463,492.208 179.463,486.708 182.5,479.5C 183.644,477.9 184.811,476.233 186,474.5C 188.214,466.028 190.714,457.695 193.5,449.5 Z"/></g>
<g><path style="opacity:0.999" fill="#9f7a06" d="M 333.5,505.5 C 337.434,506.36 341.434,506.693 345.5,506.5C 356.5,506.5 367.5,506.5 378.5,506.5C 373.437,509.098 368.104,510.765 362.5,511.5C 356.5,511.5 350.5,511.5 344.5,511.5C 340.427,510.296 336.761,508.296 333.5,505.5 Z"/></g>
</svg>
